<svg width="1200" height="1200" viewBox="0 0 1200 1200" fill="none" xmlns="http://www.w3.org/2000/svg">
<rect width="1200" height="1200" fill="#172A41"/>
<path fill-rule="evenodd" clip-rule="evenodd" d="M478.797 260.406C478.077 261.819 478.077 263.668 478.077 267.367V601.864C478.077 605.563 478.077 607.413 478.797 608.825C479.43 610.068 480.441 611.079 481.683 611.712C483.096 612.432 484.946 612.432 488.644 612.432H513.234C516.933 612.432 518.782 612.432 520.195 611.712C521.438 611.079 522.448 610.068 523.081 608.825C523.801 607.413 523.801 605.563 523.801 601.864V590.057C544.676 606.791 571.173 616.8 600.008 616.8C667.348 616.8 721.939 562.21 721.939 494.869C721.939 427.529 667.348 372.938 600.008 372.938C571.173 372.938 544.676 382.948 523.801 399.681V267.367C523.801 263.668 523.801 261.819 523.081 260.406C522.448 259.163 521.438 258.153 520.195 257.52C518.782 256.8 516.933 256.8 513.234 256.8H488.644C484.946 256.8 483.096 256.8 481.683 257.52C480.441 258.153 479.43 259.163 478.797 260.406ZM523.801 494.869C523.801 536.957 557.92 571.076 600.008 571.076C642.096 571.076 676.215 536.957 676.215 494.869C676.215 452.781 642.096 418.662 600.008 418.662C557.92 418.662 523.801 452.781 523.801 494.869Z" fill="#F25C2B"/>
<g clip-path="url(#clip0_2021_2)">
<path d="M184.8 937.671V789.6H284.531V815.381H216.687V850.66H279.443V876.441H216.178V911.89H284.87V937.671H184.8Z" fill="white"/>
<path d="M349.832 939.367C341.73 939.526 333.763 937.283 326.934 932.922C319.505 928.282 313.606 921.557 309.973 913.586C305.626 903.712 303.54 892.991 303.867 882.208C303.469 871.292 305.618 860.433 310.143 850.491C313.805 842.628 319.705 836.02 327.104 831.494C333.862 827.274 341.695 825.095 349.662 825.218C355.028 825.029 360.367 826.074 365.266 828.271C369.144 830.168 372.604 832.821 375.443 836.074C377.758 838.895 379.749 841.967 381.379 845.233H382.227V789.6H412.927V937.671H382.567V919.862H381.379C379.703 923.139 377.654 926.213 375.273 929.021C372.394 932.142 368.939 934.676 365.097 936.483C360.287 938.572 355.071 939.558 349.832 939.367ZM359.499 914.943C364.081 915.083 368.571 913.646 372.22 910.872C375.866 907.814 378.62 903.83 380.192 899.339C382.098 893.891 383.017 888.148 382.906 882.377C383.01 876.608 382.091 870.865 380.192 865.416C378.661 860.999 375.894 857.114 372.22 854.222C368.584 851.423 364.085 849.983 359.499 850.151C354.918 850.012 350.428 851.449 346.779 854.222C343.169 857.312 340.422 861.286 338.807 865.756C337.005 871.225 336.145 876.96 336.263 882.717C336.129 888.488 337.048 894.236 338.976 899.678C340.429 904.185 343.135 908.186 346.779 911.211C350.44 913.929 354.95 915.252 359.499 914.943V914.943Z" fill="white"/>
<path d="M488.234 981.6C479.521 981.81 470.842 980.431 462.623 977.53C456.146 975.228 450.325 971.386 445.662 966.335C441.518 961.948 438.696 956.481 437.521 950.561L466.015 946.83C466.91 949.138 468.3 951.222 470.086 952.936C472.177 955.07 474.73 956.694 477.549 957.685C481.204 958.93 485.054 959.505 488.913 959.381C494.937 959.728 500.906 958.057 505.874 954.632C508.309 952.585 510.19 949.959 511.346 946.995C512.501 944.032 512.895 940.826 512.489 937.671V917.996H511.132C509.648 921.232 507.578 924.164 505.026 926.646C502.123 929.647 498.589 931.964 494.68 933.431C489.799 935.239 484.618 936.102 479.415 935.975C471.289 936.197 463.257 934.204 456.178 930.208C448.986 926.336 443.089 920.439 439.217 913.247C434.953 903.651 432.923 893.212 433.28 882.717C432.934 871.877 435.02 861.097 439.386 851.169C443.051 843.352 448.954 836.8 456.348 832.342C463.129 828.175 470.946 826 478.906 826.067C484.269 825.913 489.6 826.956 494.51 829.12C498.368 831.05 501.821 833.698 504.687 836.922C507.002 839.743 508.993 842.816 510.623 846.081H511.81V826.575H542.341V938.689C542.612 947.143 540.176 955.462 535.386 962.434C530.505 968.97 523.854 973.973 516.22 976.851C507.248 980.085 497.771 981.693 488.234 981.6V981.6ZM488.234 912.908C492.715 913.08 497.127 911.769 500.786 909.176C504.37 906.41 507.127 902.714 508.757 898.491C510.752 893.066 511.674 887.306 511.471 881.53C511.605 875.758 510.685 870.01 508.757 864.568C507.241 860.19 504.469 856.355 500.786 853.544C497.202 850.77 492.764 849.331 488.234 849.473C483.601 849.335 479.058 850.77 475.344 853.544C471.741 856.535 469.039 860.47 467.542 864.908C465.572 870.339 464.651 876.094 464.828 881.869C464.617 887.645 465.539 893.408 467.542 898.83C469.06 903.161 471.836 906.94 475.514 909.685C479.475 912.272 484.209 913.41 488.913 912.908H488.234Z" fill="white"/>
<path d="M617.648 939.876C607.355 940.139 597.175 937.682 588.136 932.752C580.049 928.204 573.496 921.356 569.309 913.077C564.569 903.614 562.238 893.127 562.525 882.547C562.28 872.134 564.611 861.822 569.309 852.526C573.514 844.183 579.979 837.189 587.966 832.342C596.652 827.45 606.495 824.989 616.461 825.219C623.443 825.2 630.379 826.346 636.984 828.611C643.303 830.907 649.078 834.488 653.945 839.127C658.763 843.949 662.519 849.727 664.97 856.088C667.832 864.023 669.212 872.417 669.04 880.851V889.332H574.906V870.844H639.698C639.751 866.761 638.759 862.732 636.814 859.141C634.885 855.799 632.143 852.998 628.843 850.999C623.305 847.872 616.755 847.062 610.622 848.747C604.489 850.431 599.272 854.472 596.108 859.989C594.068 863.611 593.015 867.705 593.055 871.862V890.01C592.907 894.936 593.955 899.824 596.108 904.257C598.003 908.155 601.014 911.402 604.758 913.586C608.855 915.84 613.483 916.953 618.157 916.809C621.317 916.824 624.461 916.366 627.486 915.452C630.244 914.498 632.783 912.999 634.949 911.042C636.987 909.038 638.552 906.604 639.528 903.918L668.023 905.784C666.809 912.381 663.951 918.565 659.712 923.763C655.011 928.932 649.217 932.988 642.751 935.635C634.733 938.649 626.21 940.088 617.648 939.876V939.876Z" fill="white"/>
<path d="M686.341 805.544V789.6H797.267V805.544H750.793V937.671H732.814V805.544H686.341Z" fill="white"/>
<path d="M840.348 940.215C833.736 940.295 827.19 938.905 821.182 936.144C815.629 933.708 810.912 929.698 807.613 924.611C804.09 919.103 802.316 912.658 802.524 906.123C802.372 900.953 803.664 895.843 806.256 891.367C808.711 887.387 812.16 884.114 816.263 881.869C820.666 879.594 825.339 877.884 830.171 876.78C835.259 875.763 840.348 874.745 845.606 874.067L862.567 872.201C865.736 871.959 868.838 871.155 871.726 869.826C872.728 869.252 873.547 868.406 874.087 867.385C874.627 866.364 874.867 865.211 874.779 864.06V864.06C874.984 860.978 874.564 857.887 873.544 854.972C872.524 852.057 870.924 849.379 868.842 847.098C864.185 842.974 858.094 840.843 851.881 841.162C845.946 840.876 840.056 842.329 834.934 845.342C829.813 848.355 825.681 852.797 823.047 858.123L806.086 852.356C808.468 846.171 812.448 840.728 817.62 836.583C822.336 832.868 827.761 830.155 833.563 828.611C839.096 827.139 844.799 826.398 850.524 826.406C854.678 826.435 858.822 826.832 862.906 827.593C867.67 828.464 872.22 830.249 876.305 832.851C880.955 835.703 884.76 839.743 887.33 844.554C890.467 851.165 891.924 858.447 891.57 865.756V937.671H874.609V922.575H873.591C872.115 925.478 870.167 928.115 867.825 930.378C864.734 933.35 861.108 935.71 857.139 937.332C851.788 939.397 846.081 940.377 840.348 940.215V940.215ZM842.892 925.289C848.804 925.434 854.651 924.031 859.853 921.219C864.245 918.882 867.89 915.355 870.369 911.042C872.734 907.028 874.02 902.47 874.1 897.812V881.869C872.734 883.035 871.104 883.85 869.351 884.243C866.556 884.955 863.725 885.522 860.871 885.939L851.712 887.296H844.588C840.378 887.858 836.231 888.823 832.206 890.18C828.65 891.172 825.427 893.106 822.878 895.777C820.408 898.642 819.133 902.345 819.316 906.123C819.177 908.736 819.713 911.341 820.872 913.688C822.03 916.034 823.772 918.043 825.931 919.522C830.829 923.197 836.769 925.217 842.892 925.289V925.289Z" fill="white"/>
<path d="M967.217 981.6C960.015 981.782 952.838 980.691 946.015 978.378C940.617 976.642 935.606 973.877 931.259 970.236C927.596 967.133 924.447 963.469 921.93 959.381L935.499 949.713C937.293 952.135 939.218 954.456 941.266 956.667C944.038 959.63 947.386 961.996 951.103 963.621C957.337 966.015 964.038 966.939 970.686 966.321C977.334 965.703 983.75 963.56 989.436 960.06C992.587 957.725 995.106 954.641 996.764 951.087C998.423 947.533 999.169 943.621 998.934 939.706V917.148H997.407C996.22 919.183 994.354 921.558 992.149 924.611C989.433 927.851 986.086 930.505 982.312 932.413C977.023 934.92 971.197 936.085 965.351 935.805C956.901 935.942 948.574 933.772 941.266 929.529C933.916 925.17 928.016 918.739 924.305 911.042C920.002 901.813 917.912 891.708 918.199 881.529C917.917 871.315 919.946 861.168 924.135 851.847C927.746 843.774 933.643 836.934 941.096 832.173C948.222 827.578 956.533 825.161 965.012 825.218C970.873 824.984 976.701 826.208 981.973 828.78C985.767 830.803 989.114 833.572 991.81 836.922C994.015 839.805 995.881 842.349 997.068 844.215H998.934V827.254H1015.9V940.893C1016.44 948.727 1014.41 956.523 1010.13 963.103C1005.84 969.683 999.533 974.688 992.149 977.36C984.197 980.393 975.725 981.834 967.217 981.6V981.6ZM967.217 920.54C973.191 920.66 979.075 919.071 984.178 915.961C989.055 912.607 992.831 907.886 995.033 902.392C997.678 895.639 999.003 888.442 998.934 881.19C999.069 874.019 997.861 866.886 995.372 860.158C993.354 854.381 989.627 849.353 984.687 845.741C979.748 842.205 973.798 840.361 967.725 840.484C960.726 839.849 953.735 841.778 948.05 845.911C943.147 849.741 939.392 854.846 937.195 860.667C934.765 867.233 933.558 874.189 933.634 881.19C933.447 888.216 934.717 895.203 937.365 901.713C939.49 907.295 943.205 912.13 948.05 915.621C953.617 919.138 960.131 920.855 966.708 920.54H967.217Z" fill="white"/>
</g>
<defs>
<clipPath id="clip0_2021_2">
<rect width="830.417" height="192" fill="white" transform="translate(184.8 789.6)"/>
</clipPath>
</defs>
</svg>
