<svg width="132" height="195" viewBox="0 0 132 195" fill="none" xmlns="http://www.w3.org/2000/svg">
<path fill-rule="evenodd" clip-rule="evenodd" d="M1.00745 2.28532C0.619636 3.04576 0.619629 4.04124 0.619629 6.03218V186.076C0.619629 188.067 0.619636 189.062 1.00745 189.822C1.34857 190.491 1.89289 191.035 2.56239 191.376C3.32351 191.763 4.31988 191.763 6.3126 191.763H19.5597C21.5524 191.763 22.5488 191.763 23.3099 191.376C23.9794 191.035 24.5237 190.491 24.8648 189.822C25.2527 189.062 25.2527 188.067 25.2527 186.076V179.72C36.4984 188.727 50.7734 194.115 66.3077 194.115C102.586 194.115 131.996 164.732 131.996 128.485C131.996 92.2392 102.586 62.8559 66.3077 62.8559C50.7734 62.8559 36.4984 68.2435 25.2527 77.2504V6.03218C25.2527 4.04124 25.2527 3.04576 24.8648 2.28532C24.5237 1.61642 23.9794 1.07259 23.3099 0.731763C22.5488 0.344299 21.5524 0.344299 19.5597 0.344299H6.3126C4.31988 0.344299 3.32351 0.344299 2.56239 0.731763C1.89289 1.07259 1.34857 1.61642 1.00745 2.28532ZM25.2527 128.485C25.2527 151.139 43.6336 169.504 66.3077 169.504C88.9818 169.504 107.363 151.139 107.363 128.485C107.363 105.832 88.9818 87.467 66.3077 87.467C43.6336 87.467 25.2527 105.832 25.2527 128.485Z" fill="#172A41"/>
</svg>
