<svg width="71" height="61" viewBox="0 0 71 61" fill="none" xmlns="http://www.w3.org/2000/svg">
<path fill-rule="evenodd" clip-rule="evenodd" d="M25.3998 0.700508C25.3398 0.818241 25.3398 0.972362 25.3398 1.28061V29.1553C25.3398 29.4636 25.3398 29.6177 25.3998 29.7354C25.4526 29.839 25.5368 29.9232 25.6404 29.976C25.7581 30.036 25.9122 30.036 26.2205 30.036H28.2696C28.5778 30.036 28.7319 30.036 28.8497 29.976C28.9532 29.9232 29.0374 29.839 29.0902 29.7354C29.1502 29.6177 29.1502 29.4636 29.1502 29.1553V28.1714C30.8897 29.5659 33.0978 30.4 35.5007 30.4C41.1125 30.4 45.6616 25.8508 45.6616 20.2391C45.6616 14.6274 41.1125 10.0782 35.5007 10.0782C33.0978 10.0782 30.8897 10.9123 29.1502 12.3068V1.28061C29.1502 0.972362 29.1502 0.818241 29.0902 0.700508C29.0374 0.596947 28.9532 0.512749 28.8497 0.459982C28.7319 0.399994 28.5778 0.399994 28.2696 0.399994H26.2205C25.9122 0.399994 25.7581 0.399994 25.6404 0.459982C25.5368 0.512749 25.4526 0.596947 25.3998 0.700508ZM29.1502 20.2391C29.1502 23.7464 31.9934 26.5897 35.5007 26.5897C39.0081 26.5897 41.8513 23.7464 41.8513 20.2391C41.8513 16.7318 39.0081 13.8885 35.5007 13.8885C31.9934 13.8885 29.1502 16.7318 29.1502 20.2391Z" fill="#F25C2B"/>
<g clip-path="url(#clip0_4_1751)">
<path d="M0.900024 57.1392V44.8H9.21098V46.9484H3.55727V49.8883H8.78695V52.0367H3.51487V54.9908H9.23925V57.1392H0.900024Z" fill="#172A41"/>
<path d="M14.6527 57.2806C13.9776 57.2938 13.3137 57.1069 12.7446 56.7434C12.1254 56.3568 11.6339 55.7964 11.3311 55.1321C10.9689 54.3093 10.795 53.4159 10.8223 52.5173C10.7892 51.6076 10.9682 50.7027 11.3453 49.8742C11.6505 49.219 12.1421 48.6684 12.7587 48.2912C13.3219 47.9395 13.9747 47.7579 14.6386 47.7682C15.0858 47.7524 15.5306 47.8395 15.9389 48.0226C16.2621 48.1807 16.5504 48.4017 16.787 48.6728C16.9799 48.9079 17.1458 49.1639 17.2817 49.436H17.3523V44.8H19.9106V57.1392H17.3806V55.6551H17.2817C17.142 55.9283 16.9713 56.1844 16.7728 56.4184C16.5329 56.6784 16.2449 56.8896 15.9248 57.0403C15.524 57.2143 15.0893 57.2964 14.6527 57.2806ZM15.4583 55.2452C15.8401 55.2569 16.2143 55.1371 16.5184 54.906C16.8223 54.6512 17.0517 54.3191 17.1827 53.9449C17.3416 53.4909 17.4182 53.0123 17.4089 52.5314C17.4176 52.0506 17.341 51.5721 17.1827 51.118C17.0551 50.7499 16.8246 50.4261 16.5184 50.1851C16.2154 49.9519 15.8405 49.8319 15.4583 49.8459C15.0766 49.8343 14.7024 49.954 14.3983 50.1851C14.0975 50.4427 13.8686 50.7738 13.734 51.1463C13.5838 51.602 13.5121 52.08 13.522 52.5597C13.5108 53.0407 13.5874 53.5197 13.7481 53.9731C13.8692 54.3488 14.0947 54.6821 14.3983 54.9343C14.7034 55.1607 15.0793 55.271 15.4583 55.2452Z" fill="#172A41"/>
<path d="M26.1862 60.8C25.4601 60.8175 24.7369 60.7025 24.052 60.4608C23.5122 60.269 23.0271 59.9488 22.6385 59.5279C22.2932 59.1623 22.058 58.7067 21.9601 58.2134L24.3347 57.9025C24.4092 58.0948 24.525 58.2685 24.6739 58.4113C24.8481 58.5891 25.0609 58.7245 25.2958 58.8071C25.6004 58.9108 25.9212 58.9587 26.2428 58.9484C26.7448 58.9773 27.2422 58.838 27.6562 58.5526C27.8591 58.382 28.0159 58.1632 28.1122 57.9163C28.2085 57.6693 28.2413 57.4021 28.2075 57.1392V55.4996H28.0944C27.9707 55.7693 27.7982 56.0137 27.5855 56.2205C27.3436 56.4705 27.0491 56.6636 26.7234 56.7858C26.3166 56.9365 25.8849 57.0085 25.4513 56.9979C24.7741 57.0164 24.1048 56.8503 23.5149 56.5173C22.9155 56.1947 22.4241 55.7032 22.1014 55.1039C21.7461 54.3042 21.577 53.4343 21.6067 52.5597C21.5778 51.6564 21.7517 50.758 22.1156 49.9307C22.421 49.2793 22.9129 48.7333 23.529 48.3618C24.0941 48.0145 24.7456 47.8333 25.4089 47.8389C25.8558 47.826 26.3 47.9129 26.7092 48.0933C27.0307 48.2541 27.3185 48.4748 27.5573 48.7434C27.7502 48.9786 27.9161 49.2346 28.052 49.5067H28.1509V47.8813H30.6951V57.224C30.7177 57.9285 30.5147 58.6218 30.1156 59.2028C29.7088 59.7475 29.1545 60.1644 28.5184 60.4042C27.7707 60.6737 26.981 60.8077 26.1862 60.8ZM26.1862 55.0756C26.5596 55.09 26.9273 54.9807 27.2322 54.7646C27.5309 54.5341 27.7606 54.2262 27.8965 53.8742C28.0627 53.4221 28.1395 52.9421 28.1226 52.4608C28.1338 51.9798 28.0572 51.5008 27.8965 51.0473C27.7702 50.6825 27.5391 50.3629 27.2322 50.1286C26.9335 49.8975 26.5637 49.7775 26.1862 49.7894C25.8001 49.7779 25.4215 49.8975 25.112 50.1286C24.8118 50.3779 24.5867 50.7058 24.4619 51.0756C24.2977 51.5282 24.2209 52.0078 24.2357 52.489C24.2181 52.9704 24.2949 53.4506 24.4619 53.9025C24.5884 54.2634 24.8197 54.5783 25.1262 54.8071C25.4563 55.0226 25.8508 55.1175 26.2428 55.0756H26.1862Z" fill="#172A41"/>
<path d="M36.9707 57.323C36.113 57.3449 35.2646 57.1401 34.5114 56.7293C33.8375 56.3503 33.2914 55.7797 32.9425 55.0897C32.5474 54.3012 32.3532 53.4272 32.3771 52.5456C32.3567 51.6778 32.5509 50.8185 32.9425 50.0438C33.2929 49.3486 33.8316 48.7658 34.4972 48.3618C35.221 47.9542 36.0413 47.7491 36.8718 47.7682C37.4536 47.7666 38.0316 47.8622 38.582 48.0509C39.1086 48.2422 39.5899 48.5406 39.9955 48.9272C40.397 49.3291 40.7099 49.8105 40.9142 50.3406C41.1527 51.0019 41.2677 51.7014 41.2534 52.4042V53.1109H33.4089V51.5703H38.8082C38.8127 51.23 38.7299 50.8943 38.5679 50.595C38.4072 50.3165 38.1787 50.0832 37.9036 49.9166C37.4421 49.656 36.8963 49.5885 36.3852 49.7289C35.8742 49.8692 35.4393 50.206 35.1757 50.6657C35.0057 50.9676 34.918 51.3087 34.9213 51.6551V53.1675C34.909 53.578 34.9963 53.9853 35.1757 54.3548C35.3337 54.6796 35.5845 54.9501 35.8965 55.1321C36.238 55.32 36.6236 55.4128 37.0131 55.4007C37.2764 55.4019 37.5385 55.3638 37.7905 55.2876C38.0204 55.2082 38.2319 55.0832 38.4124 54.9201C38.5823 54.7532 38.7127 54.5504 38.794 54.3265L41.1686 54.482C41.0675 55.0317 40.8293 55.547 40.476 55.9802C40.0843 56.411 39.6014 56.749 39.0626 56.9696C38.3945 57.2207 37.6842 57.3407 36.9707 57.323Z" fill="#172A41"/>
<path d="M42.6951 46.1286V44.8H51.9389V46.1286H48.0661V57.1392H46.5679V46.1286H42.6951Z" fill="#172A41"/>
<path d="M55.529 57.3512C54.978 57.3579 54.4325 57.2421 53.9318 57.012C53.4691 56.809 53.076 56.4748 52.8011 56.0509C52.5075 55.5919 52.3597 55.0548 52.377 54.5102C52.3644 54.0794 52.472 53.6536 52.688 53.2806C52.8926 52.9489 53.18 52.6761 53.5219 52.489C53.8889 52.2995 54.2783 52.157 54.6809 52.065C55.105 51.9802 55.529 51.8954 55.9671 51.8389L57.3806 51.6834C57.6447 51.6632 57.9032 51.5962 58.1438 51.4855C58.2273 51.4377 58.2956 51.3671 58.3406 51.2821C58.3856 51.197 58.4056 51.1009 58.3982 51.0049C58.4154 50.7482 58.3804 50.4906 58.2953 50.2477C58.2103 50.0048 58.0771 49.7816 57.9035 49.5915C57.5154 49.2478 57.0079 49.0702 56.4901 49.0968C55.9955 49.073 55.5047 49.1941 55.0779 49.4451C54.6511 49.6962 54.3068 50.0664 54.0873 50.5102L52.6739 50.0297C52.8724 49.5142 53.204 49.0607 53.635 48.7152C54.028 48.4056 54.4801 48.1796 54.9636 48.0509C55.4247 47.9282 55.8999 47.8665 56.377 47.8671C56.7232 47.8695 57.0685 47.9026 57.4088 47.9661C57.8059 48.0386 58.1851 48.1874 58.5255 48.4042C58.9129 48.6419 59.23 48.9786 59.4442 49.3795C59.7056 49.9304 59.827 50.5372 59.7975 51.1463V57.1392H58.3841V55.8813H58.2993C58.1763 56.1232 58.0139 56.3429 57.8187 56.5314C57.5612 56.7792 57.2591 56.9758 56.9283 57.1109C56.4824 57.283 56.0067 57.3647 55.529 57.3512ZM55.741 56.1074C56.2337 56.1195 56.7209 56.0025 57.1544 55.7682C57.5205 55.5735 57.8242 55.2796 58.0308 54.9201C58.2279 54.5857 58.335 54.2058 58.3417 53.8177V52.489C58.2279 52.5863 58.092 52.6542 57.9459 52.6869C57.713 52.7463 57.4771 52.7934 57.2392 52.8283L56.476 52.9413H55.8823C55.5315 52.9881 55.186 53.0686 54.8505 53.1816C54.5542 53.2643 54.2856 53.4255 54.0732 53.6481C53.8674 53.8868 53.7611 54.1954 53.7763 54.5102C53.7648 54.728 53.8095 54.9451 53.906 55.1406C54.0025 55.3361 54.1477 55.5036 54.3276 55.6268C54.7357 55.933 55.2308 56.1014 55.741 56.1074Z" fill="#172A41"/>
<path d="M66.1014 60.8C65.5013 60.8151 64.9032 60.7242 64.3347 60.5314C63.8848 60.3868 63.4672 60.1564 63.105 59.853C62.7997 59.5944 62.5373 59.2891 62.3276 58.9484L63.4583 58.1428C63.6078 58.3446 63.7682 58.538 63.9389 58.7223C64.1699 58.9691 64.4489 59.1663 64.7587 59.3018C65.2781 59.5012 65.8365 59.5782 66.3906 59.5267C66.9446 59.4752 67.4792 59.2967 67.953 59.0049C68.2156 58.8104 68.4255 58.5534 68.5638 58.2572C68.702 57.961 68.7641 57.6351 68.7446 57.3088V55.429H68.6173C68.5184 55.5986 68.3629 55.7965 68.1792 56.0509C67.9528 56.3209 67.6739 56.5421 67.3594 56.7011C66.9186 56.91 66.4332 57.0071 65.946 56.9837C65.2418 56.9951 64.5479 56.8143 63.9389 56.4608C63.3264 56.0975 62.8347 55.5616 62.5255 54.9201C62.1669 54.1511 61.9927 53.309 62.0166 52.4608C61.9932 51.6095 62.1623 50.764 62.5113 49.9873C62.8123 49.3145 63.3036 48.7445 63.9248 48.3477C64.5186 47.9648 65.2112 47.7634 65.9177 47.7682C66.4061 47.7487 66.8918 47.8507 67.3311 48.065C67.6473 48.2336 67.9262 48.4644 68.1509 48.7435C68.3347 48.9837 68.4901 49.1958 68.5891 49.3512H68.7446V47.9378H70.158V57.4078C70.2032 58.0605 70.0345 58.7102 69.6775 59.2586C69.3204 59.8069 68.7944 60.224 68.1792 60.4466C67.5164 60.6994 66.8105 60.8195 66.1014 60.8ZM66.1014 55.7117C66.5993 55.7216 67.0897 55.5892 67.5149 55.33C67.9213 55.0505 68.236 54.6571 68.4195 54.1993C68.6399 53.6366 68.7503 53.0368 68.7446 52.4325C68.7558 51.8349 68.6551 51.2404 68.4477 50.6799C68.2795 50.1984 67.969 49.7794 67.5573 49.4784C67.1457 49.1838 66.6499 49.0301 66.1438 49.0403C65.5606 48.9874 64.9779 49.1481 64.5043 49.4926C64.0957 49.8118 63.7827 50.2372 63.5997 50.7223C63.3971 51.2694 63.2965 51.8491 63.3029 52.4325C63.2873 53.0179 63.3932 53.6003 63.6138 54.1428C63.7909 54.6079 64.1005 55.0108 64.5043 55.3018C64.9681 55.5948 65.511 55.7379 66.059 55.7117H66.1014Z" fill="#172A41"/>
</g>
<defs>
<clipPath id="clip0_4_1751">
<rect width="69.2014" height="16" fill="white" transform="translate(0.900024 44.8)"/>
</clipPath>
</defs>
</svg>
