<svg width="24" height="20" viewBox="0 0 24 20" fill="none" xmlns="http://www.w3.org/2000/svg">
<path d="M22.6793 1.32059C21.7991 0.440418 20.7395 0.000305176 19.4996 0.000305176H14.4999C14.3643 0.000305176 14.2575 0.0339074 14.1796 0.101823C14.1013 0.16952 14.0492 0.271093 14.0234 0.406542C13.9972 0.541936 13.9818 0.664251 13.9767 0.773595C13.9715 0.882884 13.9739 1.02101 13.9846 1.1876C13.9948 1.3543 14 1.45845 14 1.50026C14.0312 1.58366 14.042 1.65404 14.0312 1.71123C14.0208 1.76831 14.0573 1.81537 14.1406 1.85177C14.2238 1.88822 14.2653 1.91695 14.2653 1.93763C14.2653 1.95832 14.3253 1.97386 14.4451 1.98443C14.5649 1.99493 14.6251 1.99997 14.6251 1.99997H14.8283H15.0002H19.5003C20.1877 1.99997 20.7761 2.24465 21.2657 2.73451C21.7556 3.22404 22.0002 3.81241 22.0002 4.50005V15.5C22.0002 16.1875 21.7556 16.7758 21.2657 17.2654C20.7761 17.755 20.1877 17.9998 19.5003 17.9998H14.5006C14.365 17.9998 14.2579 18.0338 14.1803 18.1014C14.102 18.1693 14.0499 18.2707 14.024 18.4059C13.9979 18.5415 13.9822 18.6639 13.9772 18.7733C13.9721 18.8825 13.9744 19.0205 13.985 19.1872C13.9957 19.3539 14.0008 19.458 14.0008 19.4996C14.0008 19.6352 14.0498 19.752 14.1489 19.8513C14.248 19.9502 14.3651 19.9996 14.5007 19.9996H19.5004C20.7398 19.9996 21.7999 19.5595 22.6797 18.6789C23.5599 17.799 24 16.739 24 15.4995V4.49983C23.9995 3.26022 23.5594 2.20049 22.6793 1.32059Z" fill="#CD4B27"/>
<path d="M18.5002 9.99995C18.5002 9.72916 18.401 9.49465 18.2032 9.29671L9.70317 0.796594C9.50528 0.598921 9.2711 0.499756 9.0001 0.499756C8.72909 0.499756 8.4948 0.598921 8.29685 0.796594C8.09902 0.994541 8.00002 1.22915 8.00002 1.49983V5.9998H1.00008C0.72907 5.9998 0.494675 6.09896 0.296783 6.29664C0.0988913 6.49464 0 6.72909 0 6.99993V12.9999C0 13.2707 0.0988913 13.5052 0.296838 13.703C0.494894 13.9006 0.729289 14 1.00013 14H8.00002V18.5C8.00002 18.7706 8.09902 19.0052 8.29685 19.203C8.49502 19.401 8.72931 19.5001 9.0001 19.5001C9.27094 19.5001 9.50528 19.401 9.70317 19.203L18.2032 10.7033C18.401 10.5051 18.5002 10.2706 18.5002 9.99995Z" fill="#CD4B27"/>
</svg>
