<svg width="24" height="24" viewBox="0 0 24 24" fill="none" xmlns="http://www.w3.org/2000/svg">
<g clip-path="url(#clip0_3_1608)">
<path d="M5.10964 15.1355C5.10964 16.5097 3.98706 17.6323 2.61286 17.6323C1.23867 17.6323 0.116089 16.5097 0.116089 15.1355C0.116089 13.7613 1.23867 12.6387 2.61286 12.6387H5.10964V15.1355Z" fill="#E01E5A"/>
<path d="M6.36768 15.1355C6.36768 13.7613 7.49026 12.6387 8.86445 12.6387C10.2386 12.6387 11.3612 13.7613 11.3612 15.1355V21.3871C11.3612 22.7613 10.2386 23.8839 8.86445 23.8839C7.49026 23.8839 6.36768 22.7613 6.36768 21.3871V15.1355Z" fill="#E01E5A"/>
<path d="M8.86445 5.1097C7.49026 5.1097 6.36768 3.98712 6.36768 2.61292C6.36768 1.23873 7.49026 0.11615 8.86445 0.11615C10.2386 0.11615 11.3612 1.23873 11.3612 2.61292V5.1097H8.86445Z" fill="#36C5F0"/>
<path d="M8.86448 6.36774C10.2387 6.36774 11.3612 7.49032 11.3612 8.86451C11.3612 10.2387 10.2387 11.3613 8.86448 11.3613H2.61286C1.23867 11.3613 0.116089 10.2387 0.116089 8.86451C0.116089 7.49032 1.23867 6.36774 2.61286 6.36774H8.86448Z" fill="#36C5F0"/>
<path d="M18.8903 8.86451C18.8903 7.49032 20.0128 6.36774 21.387 6.36774C22.7612 6.36774 23.8838 7.49032 23.8838 8.86451C23.8838 10.2387 22.7612 11.3613 21.387 11.3613H18.8903V8.86451Z" fill="#2EB67D"/>
<path d="M17.6322 8.86454C17.6322 10.2387 16.5096 11.3613 15.1354 11.3613C13.7613 11.3613 12.6387 10.2387 12.6387 8.86454V2.61292C12.6387 1.23873 13.7613 0.11615 15.1354 0.11615C16.5096 0.11615 17.6322 1.23873 17.6322 2.61292V8.86454Z" fill="#2EB67D"/>
<path d="M15.1354 18.8903C16.5096 18.8903 17.6322 20.0129 17.6322 21.3871C17.6322 22.7613 16.5096 23.8839 15.1354 23.8839C13.7613 23.8839 12.6387 22.7613 12.6387 21.3871V18.8903H15.1354Z" fill="#ECB22E"/>
<path d="M15.1354 17.6323C13.7613 17.6323 12.6387 16.5097 12.6387 15.1355C12.6387 13.7613 13.7613 12.6387 15.1354 12.6387H21.3871C22.7613 12.6387 23.8838 13.7613 23.8838 15.1355C23.8838 16.5097 22.7613 17.6323 21.3871 17.6323H15.1354Z" fill="#ECB22E"/>
</g>
<defs>
<clipPath id="clip0_3_1608">
<rect width="24" height="24" fill="white"/>
</clipPath>
</defs>
</svg>
